<svg xmlns="http://www.w3.org/2000/svg" xmlns:xlink="http://www.w3.org/1999/xlink"  viewBox="0 15 100 150" version="1.1">
<g id="surface1">
<path style=" stroke:none;fill-rule:nonzero;fill:rgb(81.176471%,90.980392%,85.882353%);fill-opacity:1;" d="M 63.894531 124.960938 C 54.757812 135.179688 56.207031 151.855469 56.867188 156.765625 C 63.121094 155.339844 70.378906 152.484375 75.472656 146.792969 C 84.789062 136.375 83.5 119.585938 82.960938 115.152344 C 76.535156 116.453125 69.046875 119.203125 63.894531 124.960938 Z M 63.894531 124.960938 "/>
<path style=" stroke:none;fill-rule:nonzero;fill:rgb(81.176471%,90.980392%,85.882353%);fill-opacity:1;" d="M 63.894531 87.109375 C 54.757812 97.328125 56.207031 114.003906 56.867188 118.914062 C 63.121094 117.488281 70.378906 114.632812 75.472656 108.941406 C 84.789062 98.523438 83.5 81.734375 82.960938 77.300781 C 76.535156 78.601562 69.046875 81.351562 63.894531 87.109375 Z M 63.894531 87.109375 "/>
<path style=" stroke:none;fill-rule:nonzero;fill:rgb(81.176471%,90.980392%,85.882353%);fill-opacity:1;" d="M 63.894531 49.28125 C 54.757812 59.5 56.207031 76.171875 56.867188 81.085938 C 63.121094 79.65625 70.378906 76.804688 75.472656 71.113281 C 84.789062 60.695312 83.5 43.90625 82.960938 39.472656 C 76.535156 40.773438 69.046875 43.523438 63.894531 49.28125 Z M 63.894531 49.28125 "/>
<path style=" stroke:none;fill-rule:nonzero;fill:rgb(81.176471%,90.980392%,85.882353%);fill-opacity:1;" d="M 35.789062 124.960938 C 30.8125 119.394531 23.652344 116.640625 17.375 115.289062 C 16.828125 119.921875 15.65625 136.480469 24.878906 146.792969 C 29.796875 152.289062 36.734375 155.140625 42.835938 156.613281 C 43.507812 151.519531 44.835938 135.078125 35.789062 124.960938 Z M 35.789062 124.960938 "/>
<path style=" stroke:none;fill-rule:nonzero;fill:rgb(81.176471%,90.980392%,85.882353%);fill-opacity:1;" d="M 35.789062 87.109375 C 30.8125 81.542969 23.652344 78.789062 17.375 77.4375 C 16.828125 82.070312 15.65625 98.628906 24.878906 108.941406 C 29.796875 114.4375 36.734375 117.289062 42.835938 118.761719 C 43.507812 113.667969 44.835938 97.226562 35.789062 87.109375 Z M 35.789062 87.109375 "/>
<path style=" stroke:none;fill-rule:nonzero;fill:rgb(81.176471%,90.980392%,85.882353%);fill-opacity:1;" d="M 35.789062 49.28125 C 30.8125 43.714844 23.652344 40.960938 17.375 39.609375 C 16.828125 44.238281 15.65625 60.800781 24.878906 71.113281 C 29.796875 76.609375 36.734375 79.460938 42.835938 80.933594 C 43.507812 75.835938 44.835938 59.394531 35.789062 49.28125 Z M 35.789062 49.28125 "/>
<path style=" stroke:none;fill-rule:nonzero;fill:rgb(0%,77.647059%,36.862745%);fill-opacity:1;" d="M 86.140625 75.984375 C 86.117188 75.621094 86.035156 75.257812 85.890625 74.910156 C 85.402344 73.730469 84.277344 72.933594 82.996094 72.863281 C 82.75 72.847656 80.996094 72.761719 78.339844 72.898438 C 88.835938 60.65625 86.667969 41.695312 86.140625 38.15625 C 86.117188 37.785156 86.03125 37.414062 85.882812 37.0625 C 85.386719 35.890625 84.269531 35.105469 82.996094 35.035156 C 82.070312 34.984375 60.15625 33.929688 48.410156 47.058594 C 46.214844 49.515625 44.566406 52.28125 43.34375 55.164062 C 42.117188 52.28125 40.472656 49.515625 38.273438 47.058594 C 26.53125 33.929688 4.613281 34.980469 3.6875 35.03125 C 2.417969 35.101562 1.300781 35.894531 0.804688 37.066406 C 0.660156 37.402344 0.578125 37.757812 0.550781 38.109375 C 0.0351562 41.539062 -2.191406 60.605469 8.347656 72.898438 C 5.6875 72.761719 3.933594 72.847656 3.6875 72.863281 C 2.410156 72.933594 1.285156 73.734375 0.796875 74.914062 C 0.65625 75.246094 0.578125 75.59375 0.550781 75.941406 C 0.0351562 79.371094 -2.195312 98.460938 8.367188 110.75 C 5.695312 110.613281 3.9375 110.699219 3.6875 110.714844 C 2.410156 110.785156 1.285156 111.585938 0.796875 112.765625 C 0.65625 113.097656 0.578125 113.445312 0.550781 113.792969 C 0.03125 117.261719 -2.246094 136.746094 8.726562 149.015625 C 18.066406 159.453125 33.707031 161.199219 39.988281 161.46875 L 39.988281 167.332031 C 39.988281 169.175781 41.480469 170.667969 43.320312 170.667969 C 45.160156 170.667969 46.65625 169.175781 46.65625 167.332031 L 46.65625 161.46875 C 52.914062 161.207031 68.597656 159.476562 77.957031 149.015625 C 88.886719 136.792969 86.671875 117.417969 86.140625 113.835938 C 86.117188 113.472656 86.035156 113.109375 85.890625 112.761719 C 85.402344 111.582031 84.277344 110.785156 82.996094 110.714844 C 82.75 110.699219 80.988281 110.613281 78.316406 110.75 C 88.835938 98.507812 86.667969 79.527344 86.140625 75.984375 Z M 53.382812 51.503906 C 60.785156 43.226562 74.070312 41.875 79.839844 41.691406 C 80.304688 47.367188 80.441406 60.558594 72.988281 68.890625 C 65.617188 77.128906 52.683594 78.773438 46.996094 79.089844 C 46.40625 73.265625 45.992188 59.761719 53.382812 51.503906 Z M 6.847656 41.691406 C 12.613281 41.875 25.902344 43.226562 33.304688 51.503906 C 40.691406 59.761719 40.28125 73.265625 39.691406 79.089844 C 34.007812 78.773438 21.070312 77.128906 13.695312 68.890625 C 6.246094 60.558594 6.382812 47.367188 6.847656 41.691406 Z M 6.847656 79.519531 C 12.613281 79.703125 25.902344 81.054688 33.304688 89.332031 C 40.691406 97.589844 40.28125 111.09375 39.691406 116.917969 C 34.007812 116.601562 21.070312 114.957031 13.695312 106.71875 C 6.246094 98.386719 6.382812 85.195312 6.847656 79.519531 Z M 39.691406 154.769531 C 34.007812 154.453125 21.070312 152.808594 13.695312 144.570312 C 6.246094 136.238281 6.382812 123.046875 6.847656 117.371094 C 12.613281 117.554688 25.902344 118.90625 33.304688 127.183594 C 40.691406 135.441406 40.28125 148.945312 39.691406 154.769531 Z M 72.988281 144.570312 C 65.617188 152.808594 52.6875 154.453125 46.996094 154.769531 C 46.40625 148.945312 45.996094 135.441406 53.382812 127.183594 C 60.785156 118.90625 74.070312 117.554688 79.839844 117.371094 C 80.304688 123.046875 80.441406 136.238281 72.988281 144.570312 Z M 72.988281 106.71875 C 65.617188 114.957031 52.6875 116.601562 46.996094 116.917969 C 46.40625 111.09375 45.996094 97.589844 53.382812 89.332031 C 60.785156 81.054688 74.070312 79.703125 79.839844 79.519531 C 80.304688 85.195312 80.441406 98.386719 72.988281 106.71875 Z M 72.988281 106.71875 "/>
<path style=" stroke:none;fill-rule:nonzero;fill:rgb(0%,77.647059%,36.862745%);fill-opacity:1;" d="M 43.320312 35.375 C 45.164062 35.375 46.65625 33.882812 46.65625 32.042969 L 46.65625 14.875 C 46.65625 13.035156 45.164062 11.542969 43.320312 11.542969 C 41.480469 11.542969 39.988281 13.035156 39.988281 14.875 L 39.988281 32.042969 C 39.988281 33.882812 41.480469 35.375 43.320312 35.375 Z M 43.320312 35.375 "/>
<path style=" stroke:none;fill-rule:nonzero;fill:rgb(0%,77.647059%,36.862745%);fill-opacity:1;" d="M 43.320312 6.710938 C 45.164062 6.710938 46.65625 5.21875 46.65625 3.378906 L 46.65625 3.332031 C 46.65625 1.492188 45.164062 0 43.320312 0 C 41.480469 0 39.988281 1.492188 39.988281 3.332031 L 39.988281 3.378906 C 39.988281 5.21875 41.480469 6.710938 43.320312 6.710938 Z M 43.320312 6.710938 "/>
<path style=" stroke:none;fill-rule:nonzero;fill:rgb(0%,77.647059%,36.862745%);fill-opacity:1;" d="M 27.320312 34.890625 C 29.164062 34.890625 30.65625 33.398438 30.65625 31.554688 L 30.65625 18.882812 C 30.65625 17.042969 29.164062 15.550781 27.320312 15.550781 C 25.480469 15.550781 23.988281 17.042969 23.988281 18.882812 L 23.988281 31.554688 C 23.988281 33.394531 25.480469 34.890625 27.320312 34.890625 Z M 27.320312 34.890625 "/>
<path style=" stroke:none;fill-rule:nonzero;fill:rgb(0%,77.647059%,36.862745%);fill-opacity:1;" d="M 27.320312 10.722656 C 29.164062 10.722656 30.65625 9.230469 30.65625 7.386719 L 30.65625 7.34375 C 30.65625 5.5 29.164062 4.007812 27.320312 4.007812 C 25.480469 4.007812 23.988281 5.5 23.988281 7.34375 L 23.988281 7.386719 C 23.988281 9.230469 25.480469 10.722656 27.320312 10.722656 Z M 27.320312 10.722656 "/>
<path style=" stroke:none;fill-rule:nonzero;fill:rgb(0%,77.647059%,36.862745%);fill-opacity:1;" d="M 59.320312 34.890625 C 61.164062 34.890625 62.65625 33.398438 62.65625 31.554688 L 62.65625 18.882812 C 62.65625 17.042969 61.164062 15.550781 59.320312 15.550781 C 57.480469 15.550781 55.988281 17.042969 55.988281 18.882812 L 55.988281 31.554688 C 55.988281 33.394531 57.480469 34.890625 59.320312 34.890625 Z M 59.320312 34.890625 "/>
<path style=" stroke:none;fill-rule:nonzero;fill:rgb(0%,77.647059%,36.862745%);fill-opacity:1;" d="M 59.320312 10.722656 C 61.164062 10.722656 62.65625 9.230469 62.65625 7.386719 L 62.65625 7.34375 C 62.65625 5.5 61.164062 4.007812 59.320312 4.007812 C 57.480469 4.007812 55.988281 5.5 55.988281 7.34375 L 55.988281 7.386719 C 55.988281 9.230469 57.480469 10.722656 59.320312 10.722656 Z M 59.320312 10.722656 "/>
</g>
</svg>
