<?xml version="1.0"?>
<svg xmlns="http://www.w3.org/2000/svg" xmlns:xlink="http://www.w3.org/1999/xlink" xmlns:svgjs="http://svgjs.com/svgjs" version="1.1" width="512" height="512" x="0" y="0" viewBox="0 0 74 74" style="enable-background:new 0 0 512 512" xml:space="preserve" class=""><g><path xmlns="http://www.w3.org/2000/svg" d="M53.609,20.36a1,1,0,0,1-.519-.146l-2.549-1.549a1,1,0,1,1,1.039-1.709l2.549,1.549a1,1,0,0,1-.52,1.855Z" fill="#ffffff" data-original="#000000" style="" class=""/><path xmlns="http://www.w3.org/2000/svg" d="M66.26,46.35a1,1,0,0,1-.953-.7l-.23-.72a.661.661,0,0,1-.02-.073L58.348,23.935a1,1,0,1,1,1.9-.61l6.656,20.758,3.375-1.117-7.558-22.58L37,4.182l-25.725,16.2L3.717,42.966,7.084,44.08l6.661-21.545a1,1,0,0,1,.435-.559L35.67,8.886a1,1,0,0,1,1.04,1.708L15.544,23.487l-6.6,21.349c-.006.024-.012.048-.019.071l-.23.74a1,1,0,0,1-1.269.652l-5.29-1.75A1,1,0,0,1,1.5,43.283l7.99-23.87a1,1,0,0,1,.415-.529l26.56-16.73a1,1,0,0,1,1.066,0l26.56,16.73a1,1,0,0,1,.415.529l7.99,23.87a1,1,0,0,1-.634,1.266l-5.29,1.75A.993.993,0,0,1,66.26,46.35Z" fill="#ffffff" data-original="#000000" style="" class=""/><path xmlns="http://www.w3.org/2000/svg" d="M45.049,15.15A.993.993,0,0,1,44.53,15l-2.48-1.51a1,1,0,1,1,1.04-1.708l2.48,1.51a1,1,0,0,1-.521,1.854Z" fill="#ffffff" data-original="#000000" style="" class=""/><path xmlns="http://www.w3.org/2000/svg" d="M66.034,72H7.966a1,1,0,0,1-1-1V44.6a1,1,0,0,1,2,0V70H65.034V44.619a1,1,0,0,1,2,0V71A1,1,0,0,1,66.034,72Z" fill="#ffffff" data-original="#000000" style="" class=""/><path xmlns="http://www.w3.org/2000/svg" d="M54.309,72H37a1,1,0,0,1-1-1V51.864a1,1,0,0,1,1-1H54.309a1,1,0,0,1,1,1V71A1,1,0,0,1,54.309,72ZM38,70H53.309V52.864H38Z" fill="#ffffff" data-original="#000000" style="" class=""/><path xmlns="http://www.w3.org/2000/svg" d="M54.309,72a1,1,0,0,1-.742-.329L36.258,52.535a1,1,0,0,1,1.484-1.342L55.05,70.329A1,1,0,0,1,54.309,72Z" fill="#ffffff" data-original="#000000" style="" class=""/><path xmlns="http://www.w3.org/2000/svg" d="M37,72a1,1,0,0,1-.742-1.671L53.567,51.193a1,1,0,1,1,1.483,1.342L37.742,71.671A1,1,0,0,1,37,72Z" fill="#ffffff" data-original="#000000" style="" class=""/><path xmlns="http://www.w3.org/2000/svg" d="M37,72H19.691a1,1,0,0,1-1-1V51.864a1,1,0,0,1,1-1H37a1,1,0,0,1,1,1V71A1,1,0,0,1,37,72ZM20.691,70H36V52.864H20.691Z" fill="#ffffff" data-original="#000000" style="" class=""/><path xmlns="http://www.w3.org/2000/svg" d="M19.691,72a1,1,0,0,1-.741-1.671L36.258,51.193a1,1,0,1,1,1.484,1.342L20.433,71.671A1,1,0,0,1,19.691,72Z" fill="#ffffff" data-original="#000000" style="" class=""/><path xmlns="http://www.w3.org/2000/svg" d="M37,72a1,1,0,0,1-.742-.329L18.95,52.535a1,1,0,1,1,1.483-1.342L37.742,70.329A1,1,0,0,1,37,72Z" fill="#ffffff" data-original="#000000" style="" class=""/><path xmlns="http://www.w3.org/2000/svg" d="M44.87,36.9H29.239a1,1,0,0,1-1-1V27a1,1,0,0,1,1-1H44.87a1,1,0,0,1,1,1v8.9A1,1,0,0,1,44.87,36.9Zm-14.631-2H43.87V28H30.239Z" fill="#ffffff" data-original="#000000" style="" class=""/><path xmlns="http://www.w3.org/2000/svg" d="M37,36.9a1,1,0,0,1-1-1V27a1,1,0,0,1,2,0v8.9A1,1,0,0,1,37,36.9Z" fill="#ffffff" data-original="#000000" style="" class=""/></g></svg>
